HIERARCHY
ROOT Hips
{
	OFFSET 62.890800 8.863803 43.568401
	CHANNELS 6 Xposition Yposition Zposition Zrotation Xrotation Yrotation
	JOINT Chest
	{
		OFFSET -0.160400 1.630001 7.806301
		CHANNELS 6 Xposition Yposition Zposition Zrotation Xrotation Yrotation
		JOINT Chest2
		{
			OFFSET 0.000000 0.000000 3.197998
			CHANNELS 6 Xposition Yposition Zposition Zrotation Xrotation Yrotation
			JOINT Neck
			{
				OFFSET 0.000000 0.000001 7.440701
				CHANNELS 6 Xposition Yposition Zposition Zrotation Xrotation Yrotation
				JOINT Head
				{
					OFFSET 0.000000 0.000000 2.173901
					CHANNELS 6 Xposition Yposition Zposition Zrotation Xrotation Yrotation
					End Site
					{
						OFFSET 0.000000 0.000001 10.420303
					}
				}
			}
			JOINT LeftCollar
			{
				OFFSET 2.426399 -1.880099 4.759399
				CHANNELS 6 Xposition Yposition Zposition Zrotation Xrotation Yrotation
				JOINT LeftShoulder
				{
					OFFSET 4.420197 0.000000 0.000000
					CHANNELS 6 Xposition Yposition Zposition Zrotation Xrotation Yrotation
					JOINT LeftElbow
					{
						OFFSET 0.000000 -0.000001 -10.347099
						CHANNELS 6 Xposition Yposition Zposition Zrotation Xrotation Yrotation
						JOINT LeftWrist
						{
							OFFSET 0.000000 -0.000001 -12.496300
							CHANNELS 6 Xposition Yposition Zposition Zrotation Xrotation Yrotation
							End Site
							{
								OFFSET 0.000000 0.000000 -2.173901
							}
						}
					}
				}
			}
			JOINT RightCollar
			{
				OFFSET -2.781502 -1.903799 5.072601
				CHANNELS 6 Xposition Yposition Zposition Zrotation Xrotation Yrotation
				JOINT RightShoulder
				{
					OFFSET -4.012100 0.000000 0.000000
					CHANNELS 6 Xposition Yposition Zposition Zrotation Xrotation Yrotation
					JOINT RightElbow
					{
						OFFSET 0.000000 -0.000001 -10.346600
						CHANNELS 6 Xposition Yposition Zposition Zrotation Xrotation Yrotation
						JOINT RightWrist
						{
							OFFSET 0.000000 -0.000001 -12.562599
							CHANNELS 6 Xposition Yposition Zposition Zrotation Xrotation Yrotation
							End Site
							{
								OFFSET 0.000000 0.000000 -2.173901
							}
						}
					}
				}
			}
		}
	}
	JOINT LeftHip
	{
		OFFSET 2.047997 -0.047200 -2.693199
		CHANNELS 6 Xposition Yposition Zposition Zrotation Xrotation Yrotation
		JOINT LeftKnee
		{
			OFFSET 0.000000 -0.000001 -18.824400
			CHANNELS 6 Xposition Yposition Zposition Zrotation Xrotation Yrotation
			JOINT LeftAnkle
			{
				OFFSET 0.000000 -0.000002 -19.078199
				CHANNELS 6 Xposition Yposition Zposition Zrotation Xrotation Yrotation
				End Site
				{
					OFFSET 0.000000 -9.342100 0.000001
				}
			}
		}
	}
	JOINT RightHip
	{
		OFFSET -2.129898 -0.022300 -2.538300
		CHANNELS 6 Xposition Yposition Zposition Zrotation Xrotation Yrotation
		JOINT RightKnee
		{
			OFFSET 0.000000 -0.000001 -18.644600
			CHANNELS 6 Xposition Yposition Zposition Zrotation Xrotation Yrotation
			JOINT RightAnkle
			{
				OFFSET 0.000000 -0.000002 -18.801399
				CHANNELS 6 Xposition Yposition Zposition Zrotation Xrotation Yrotation
				End Site
				{
					OFFSET 0.000000 -8.914600 0.000001
				}
			}
		}
	}
}
MOTION
Frames: 4
Frame Time: 0.041667
-43.331009 48.564114 42.970963 402.975232 7.801642 1.762038 -0.160401 1.630000 7.806300 4.298545 13.221727 -4.669700 -0.000002 0.000007 3.198001 0.301214 -6.566765 0.221514 -0.000004 -0.000003 7.440702 -18.681937 9.180432 0.887785 -0.000008 0.000000 2.173908 -0.860684 1.457748 -2.725274 2.426396 -1.880102 4.759397 -178.554860 172.933396 -185.045971 4.420190 0.000001 0.000004 -10.194383 6.004477 -93.035837 0.000002 0.000005 -10.347095 485.438866 -202.218829 -660.232641 0.000002 0.000005 -12.496298 -34.509124 118.559790 152.329078 -2.781507 -1.903801 5.072599 -178.209799 -188.019904 167.613894 -4.012101 0.000005 -0.000001 -5.104938 3.741124 452.492874 0.000002 0.000001 -10.346600 -387.764483 -2.185712 0.172190 0.000010 0.000002 -12.562601 1635.581141 543.042659 -864.220776 2.047998 -0.047207 -2.693204 404.929186 -36.682112 21.715316 -0.000001 -0.000001 -18.824396 122.451440 128.961389 -156.957652 0.000001 0.000004 -19.078201 -362.019642 11.429844 -4.625530 -2.129894 -0.022306 -2.538308 -426.553018 -34.296525 -14.232921 0.000003 0.000000 -18.644594 -154.911873 -240.320425 188.691066 -0.000002 -0.000008 -18.801394 197.496559 162.833185 188.706406
-43.472015 48.745113 43.001766 403.926678 7.739881 1.611061 -0.160405 1.630001 7.806299 4.475277 13.181254 -4.325474 0.000008 0.000006 3.198005 0.185518 -6.485279 0.213019 -0.000003 0.000007 7.440697 -18.596261 9.214741 0.833357 -0.000008 -0.000004 2.173903 -0.993876 1.477934 -2.895897 2.426403 -1.880098 4.759395 -178.666110 172.860039 -184.702481 4.420202 -0.000005 0.000000 -9.783105 6.132968 -92.971497 0.000001 0.000009 -10.347094 485.764474 -203.097997 -659.589510 0.000005 -0.000004 -12.496301 -33.942751 118.482144 151.948842 -2.781499 -1.903797 5.072594 -178.191999 -188.057456 167.865218 -4.012094 0.000000 0.000005 -5.254661 4.150838 451.903511 -0.000001 0.000003 -10.346596 -388.204347 -2.179784 0.168454 0.000005 0.000000 -12.562596 1635.601249 542.851141 -864.309404 2.047997 -0.047197 -2.693201 404.547569 -36.559755 21.499610 0.000008 0.000003 -18.824402 125.295954 129.563484 -158.600626 0.000000 -0.000003 -19.078199 -363.923926 12.461485 -4.995753 -2.129902 -0.022300 -2.538302 -423.974649 -33.948963 -12.687653 0.000001 -0.000001 -18.644600 -153.193384 -242.176815 185.594176 0.000004 -0.000001 -18.801399 195.961351 163.157687 188.096539
-43.649910 48.939114 43.045059 404.929623 7.742620 1.426772 -0.160403 1.630002 7.806304 4.582904 13.136392 -3.928160 0.000007 0.000003 3.197999 0.098553 -6.407092 0.205476 -0.000006 0.000008 7.440701 -18.577023 9.263137 0.762931 -0.000009 0.000006 2.173902 -1.150167 1.495325 -3.087037 2.426402 -1.880091 4.759398 -178.782783 172.766316 -184.466197 4.420199 0.000006 -0.000003 -9.335515 6.204874 -92.712926 -0.000001 0.000002 -10.347096 486.154068 -204.161198 -659.080634 -0.000002 0.000005 -12.496298 -33.177070 118.435521 151.336378 -2.781498 -1.903791 5.072603 -178.120979 -188.168174 168.069850 -4.012100 0.000001 -0.000002 -5.429200 4.527527 451.299859 0.000009 0.000001 -10.346602 -388.745681 -2.169061 0.186490 0.000001 0.000003 -12.562604 1635.474262 542.685632 -864.439178 2.047997 -0.047198 -2.693193 404.364739 -36.466493 21.438533 -0.000008 -0.000002 -18.824400 128.642925 130.206915 -160.637580 0.000007 0.000002 -19.078197 -366.420934 13.739569 -5.362767 -2.129897 -0.022296 -2.538294 -421.175392 -33.549940 -11.114956 0.000002 0.000002 -18.644604 -150.973613 -243.886931 181.634018 0.000002 -0.000003 -18.801397 194.245280 163.203163 187.072297
-43.865700 49.146618 43.104053 405.953359 7.828286 1.213205 -0.160405 1.629998 7.806304 4.627232 13.083927 -3.459736 0.000004 -0.000006 3.198010 0.033031 -6.332018 0.197654 -0.000005 -0.000001 7.440705 -18.609477 9.308455 0.635160 0.000001 -0.000006 2.173911 -1.324037 1.505227 -3.267270 2.426400 -1.880101 4.759404 -178.798220 172.730416 -184.321315 4.420197 -0.000002 -0.000003 -9.029321 6.345460 -92.275876 0.000002 0.000007 -10.347083 486.483775 -205.269096 -658.594051 -0.000012 0.000003 -12.496304 -32.420514 118.463675 150.819647 -2.781503 -1.903797 5.072609 -178.064056 -188.267375 168.281846 -4.012096 0.000000 -0.000002 -5.541000 4.857861 450.632386 0.000005 -0.000002 -10.346597 -389.284009 -2.149304 0.223171 0.000002 0.000000 -12.562596 1635.230561 542.567442 -864.573651 2.047997 -0.047205 -2.693193 404.322829 -36.434029 21.490669 0.000000 0.000003 -18.824406 132.618791 130.872285 -163.099494 -0.000001 0.000000 -19.078201 -369.641915 15.201774 -5.503625 -2.129894 -0.022302 -2.538299 -418.485308 -33.123849 -9.718932 0.000004 0.000006 -18.644602 -148.464625 -245.359356 177.158851 0.000003 -0.000001 -18.801395 192.353768 162.868688 186.039695
